<svg id="visual" viewBox="0 0 960 540" width="960" height="540" xmlns="http://www.w3.org/2000/svg" xmlns:xlink="http://www.w3.org/1999/xlink" version="1.1"><rect width="960" height="540" fill="#001122"></rect><g><g transform="translate(683 16)"><path d="M87.7 -49.8C104.4 -21.7 102.3 18.1 84.5 51.5C66.8 84.9 33.4 111.9 -3.1 113.7C-39.5 115.5 -79.1 92 -97.4 58.2C-115.7 24.5 -112.9 -19.5 -93.1 -49.3C-73.3 -79.2 -36.7 -94.9 -0.6 -94.6C35.5 -94.2 71 -77.9 87.7 -49.8Z" stroke="#FF0066" fill="none" stroke-width="20"></path></g><g transform="translate(249 410)"><path d="M42.1 -27C50.8 -9.2 51.5 10.5 43.2 27.3C34.8 44.1 17.4 58 0.7 57.6C-16 57.2 -32 42.5 -42.4 24.5C-52.8 6.5 -57.6 -14.8 -49.6 -32.1C-41.6 -49.5 -20.8 -62.9 -2.1 -61.7C16.7 -60.6 33.4 -44.7 42.1 -27Z" stroke="#FF0066" fill="none" stroke-width="20"></path></g><g transform="translate(762 409)"><path d="M84 -50.4C101.9 -17.4 104.9 22.4 88.4 49.5C71.9 76.6 35.9 90.9 3.2 89C-29.5 87.2 -59 69.1 -77.3 41.1C-95.5 13 -102.4 -25.1 -87.7 -56.2C-72.9 -87.3 -36.5 -111.5 -1.7 -110.6C33 -109.6 66 -83.4 84 -50.4Z" stroke="#FF0066" fill="none" stroke-width="20"></path></g></g></svg>