<svg id="visual" viewBox="0 0 960 540" width="960" height="540" xmlns="http://www.w3.org/2000/svg" xmlns:xlink="http://www.w3.org/1999/xlink" version="1.1"><rect width="960" height="540" fill="#e6ff92"></rect><g><g transform="translate(601 223)"><path d="M0 -138.3L64.3 -122.5L113.8 -78.6L137.3 -16.7L129.3 49L91.7 103.5L33.1 134.3L-33.1 134.3L-91.7 103.5L-129.3 49L-137.3 -16.7L-113.8 -78.6L-64.3 -122.5Z" fill="none" stroke="#297EA6" stroke-width="5"></path></g><g transform="translate(182 130)"><path d="M0 -137L63.7 -121.3L112.7 -77.8L136 -16.5L128.1 48.6L90.8 102.5L32.8 133L-32.8 133L-90.8 102.5L-128.1 48.6L-136 -16.5L-112.7 -77.8L-63.7 -121.3Z" fill="none" stroke="#297EA6" stroke-width="5"></path></g><g transform="translate(772 459)"><path d="M0 -78L36.2 -69.1L64.2 -44.3L77.4 -9.4L72.9 27.7L51.7 58.4L18.7 75.7L-18.7 75.7L-51.7 58.4L-72.9 27.7L-77.4 -9.4L-64.2 -44.3L-36.2 -69.1Z" fill="none" stroke="#297EA6" stroke-width="5"></path></g></g></svg>