<svg id="visual" viewBox="0 0 960 540" width="960" height="540" xmlns="http://www.w3.org/2000/svg" xmlns:xlink="http://www.w3.org/1999/xlink" version="1.1"><path d="M0 174L14.5 180.3C29 186.7 58 199.3 87.2 209.2C116.3 219 145.7 226 174.8 209.7C204 193.3 233 153.7 262 158.2C291 162.7 320 211.3 349 236.7C378 262 407 264 436.2 242.5C465.3 221 494.7 176 523.8 163.3C553 150.7 582 170.3 611 196.3C640 222.3 669 254.7 698 243C727 231.3 756 175.7 785.2 155.8C814.3 136 843.7 152 872.8 146.5C902 141 931 114 945.5 100.5L960 87L960 0L945.5 0C931 0 902 0 872.8 0C843.7 0 814.3 0 785.2 0C756 0 727 0 698 0C669 0 640 0 611 0C582 0 553 0 523.8 0C494.7 0 465.3 0 436.2 0C407 0 378 0 349 0C320 0 291 0 262 0C233 0 204 0 174.8 0C145.7 0 116.3 0 87.2 0C58 0 29 0 14.5 0L0 0Z" fill="#003f75"></path><path d="M0 228L14.5 237.8C29 247.7 58 267.3 87.2 279C116.3 290.7 145.7 294.3 174.8 281.8C204 269.3 233 240.7 262 253.3C291 266 320 320 349 336.2C378 352.3 407 330.7 436.2 313.5C465.3 296.3 494.7 283.7 523.8 281C553 278.3 582 285.7 611 309C640 332.3 669 371.7 698 348.2C727 324.7 756 238.3 785.2 214.2C814.3 190 843.7 228 872.8 238C902 248 931 230 945.5 221L960 212L960 85L945.5 98.5C931 112 902 139 872.8 144.5C843.7 150 814.3 134 785.2 153.8C756 173.7 727 229.3 698 241C669 252.7 640 220.3 611 194.3C582 168.3 553 148.7 523.8 161.3C494.7 174 465.3 219 436.2 240.5C407 262 378 260 349 234.7C320 209.3 291 160.7 262 156.2C233 151.7 204 191.3 174.8 207.7C145.7 224 116.3 217 87.2 207.2C58 197.3 29 184.7 14.5 178.3L0 172Z" fill="#00274c"></path><path d="M0 433L14.5 422.2C29 411.3 58 389.7 87.2 388.8C116.3 388 145.7 408 174.8 429.7C204 451.3 233 474.7 262 481.8C291 489 320 480 349 460.2C378 440.3 407 409.7 436.2 414.2C465.3 418.7 494.7 458.3 523.8 480C553 501.7 582 505.3 611 499.8C640 494.3 669 479.7 698 460.7C727 441.7 756 418.3 785.2 413C814.3 407.7 843.7 420.3 872.8 416.8C902 413.3 931 393.7 945.5 383.8L960 374L960 210L945.5 219C931 228 902 246 872.8 236C843.7 226 814.3 188 785.2 212.2C756 236.3 727 322.7 698 346.2C669 369.7 640 330.3 611 307C582 283.7 553 276.3 523.8 279C494.7 281.7 465.3 294.3 436.2 311.5C407 328.7 378 350.3 349 334.2C320 318 291 264 262 251.3C233 238.7 204 267.3 174.8 279.8C145.7 292.3 116.3 288.7 87.2 277C58 265.3 29 245.7 14.5 235.8L0 226Z" fill="#001a34"></path><path d="M0 541L14.5 541C29 541 58 541 87.2 541C116.3 541 145.7 541 174.8 541C204 541 233 541 262 541C291 541 320 541 349 541C378 541 407 541 436.2 541C465.3 541 494.7 541 523.8 541C553 541 582 541 611 541C640 541 669 541 698 541C727 541 756 541 785.2 541C814.3 541 843.7 541 872.8 541C902 541 931 541 945.5 541L960 541L960 372L945.5 381.8C931 391.7 902 411.3 872.8 414.8C843.7 418.3 814.3 405.7 785.2 411C756 416.3 727 439.7 698 458.7C669 477.7 640 492.3 611 497.8C582 503.3 553 499.7 523.8 478C494.7 456.3 465.3 416.7 436.2 412.2C407 407.7 378 438.3 349 458.2C320 478 291 487 262 479.8C233 472.7 204 449.3 174.8 427.7C145.7 406 116.3 386 87.2 386.8C58 387.7 29 409.3 14.5 420.2L0 431Z" fill="#02172b"></path></svg>