<svg id="visual" viewBox="0 0 960 540" width="960" height="540" xmlns="http://www.w3.org/2000/svg" xmlns:xlink="http://www.w3.org/1999/xlink" version="1.1"><rect x="0" y="0" width="960" height="540" fill="#0c0b0b"></rect><g transform="translate(-56.403153448553894 -69.5940884854563)"><path d="M176.3 -281.3C256.5 -258.9 369 -268.5 457.5 -226.9C546 -185.3 610.5 -92.7 570.8 -22.9C531.1 46.8 387.2 93.7 324.9 180.6C262.6 267.4 281.8 394.4 241.2 466.3C200.7 538.2 100.3 555.1 26.6 509.1C-47.2 463 -94.3 354.1 -118.7 272.8C-143.1 191.5 -144.6 137.9 -201.2 97.1C-257.8 56.3 -369.4 28.1 -425.6 -32.4C-481.7 -93 -482.5 -186 -439.8 -251C-397.2 -315.9 -311.1 -352.8 -230.5 -375C-150 -397.1 -75 -404.6 -13.5 -381.2C48 -357.8 96 -303.6 176.3 -281.3" fill="none" stroke="#02ddd3" stroke-width="6"></path></g></svg>