<svg id="Layer_1" data-name="Layer 1" xmlns="http://www.w3.org/2000/svg" viewBox="0 0 501 501" style="background-color: transparent;">
    <defs>
        <style>
            .cls-1 {
                fill: none;
            }

            .cls-1,
            .cls-2,
            .cls-3 {
                stroke: #b0d000;
                stroke-miterlimit: 10;
            }

            .cls-2 {
                fill: #09244b;
            }

            .cls-3 {
                fill: #1c274c;
            }
        </style>
    </defs>
    <g id="é¡µé¢-1">
        <g id="Map">
            <g id="live_location_fill" data-name="live location fill">
                <path id="MingCute" class="cls-1"
                    d="M500,0V500H0V0ZM262.36,484.54l-.24,0-1.48.74-.39.08h0l-.32-.08-1.48-.74a.44.44,0,0,0-.49.12l-.08.22-.36,8.9.1.43.23.25L260,496l.31.08h0l.24-.08,2.16-1.55.27-.33h0l.07-.35-.36-8.9a.44.44,0,0,0-.34-.37Zm5.52-2.35-.29.05-3.84,1.92-.21.21h0l-.06.24.38,8.94.1.27h0l.17.15,4.19,1.93a.5.5,0,0,0,.59-.17l.09-.29-.72-12.8a.53.53,0,0,0-.4-.45Zm-14.9.05a.46.46,0,0,0-.57.11l-.12.29-.71,12.8a.49.49,0,0,0,.35.49l.33,0,4.18-1.93.2-.17h0l.08-.25.37-8.94-.06-.27h0l-.2-.18Z"
                    transform="translate(0.5 0.5)" />
                <path id="å½¢çŠ¶" class="cls-2"
                    d="M83.33,333.33a20.83,20.83,0,0,1,20.54,17.34,19.4,19.4,0,0,1,.22,2.14l0,.62c0,.49,0,1,0,1.47v15.39a25.57,25.57,0,0,0,25.6,25.54h16.06a20.84,20.84,0,0,1,3.51,41.38,19.49,19.49,0,0,1-2.16.21l-.61,0c-.49,0-1,0-1.48,0H104.17a41.68,41.68,0,0,1-41.56-38.56l-.11-3.11V354.17A20.84,20.84,0,0,1,83.33,333.33Zm333.34,0a20.84,20.84,0,0,1,20.83,20.84v41.66a41.66,41.66,0,0,1-41.67,41.67H354.17a20.84,20.84,0,1,1,0-41.67h16.06a25.57,25.57,0,0,0,25.6-25.54V354.17A20.84,20.84,0,0,1,416.67,333.33ZM145.83,62.5a20.84,20.84,0,1,1,0,41.67H129.77a25.57,25.57,0,0,0-25.6,25.54v16.12a20.84,20.84,0,1,1-41.67,0V104.17A41.66,41.66,0,0,1,104.17,62.5Zm250,0a41.66,41.66,0,0,1,41.67,41.67v41.66a20.84,20.84,0,1,1-41.67,0V129.71a25.57,25.57,0,0,0-25.6-25.54H354.17a20.84,20.84,0,1,1,0-41.67Z"
                    transform="translate(0.5 0.5)" />
            </g>
        </g>
    </g>
    <path class="cls-3"
        d="M165.46,169.07a72.57,72.57,0,0,1,104.43,0c28.85,29.56,28.85,77.5,0,107.06L250,296.48a10.86,10.86,0,0,0,0,15.09,10.23,10.23,0,0,0,14.72,0l19.86-20.35c37-37.89,37-99.32,0-137.21a93,93,0,0,0-133.89,0L111,194.71C74,232.6,74,294,111,331.92a93.3,93.3,0,0,0,61.68,28.27,10.67,10.67,0,0,0,1.16-21.3,72.72,72.72,0,0,1-48.11-22.05c-28.84-29.56-28.84-77.49,0-107.06Z"
        transform="translate(0.5 0.5)" />
    <path class="cls-3"
        d="M320.12,139.81a10.67,10.67,0,0,0-1.15,21.3,72.71,72.71,0,0,1,48.1,22c28.84,29.56,28.84,77.49,0,107.06l-39.72,40.71a72.57,72.57,0,0,1-104.43,0c-28.84-29.56-28.84-77.5,0-107.06l19.86-20.35a10.86,10.86,0,0,0,0-15.09,10.24,10.24,0,0,0-14.73,0l-19.86,20.35c-37,37.89-37,99.32,0,137.22a93.06,93.06,0,0,0,133.89,0l39.72-40.72c37-37.89,37-99.32,0-137.21A93.28,93.28,0,0,0,320.12,139.81Z"
        transform="translate(0.5 0.5)" />
</svg>